<?xml version="1.0" encoding="UTF-8" standalone="no"?>
<svg width="173px" height="51px" viewBox="0 0 173 51" version="1.1" xmlns="http://www.w3.org/2000/svg" xmlns:xlink="http://www.w3.org/1999/xlink">
    <!-- Generator: Sketch 3.6.1 (26313) - http://www.bohemiancoding.com/sketch -->
    <title>BigAppStore@1x</title>
    <desc>Created with Sketch.</desc>
    <defs/>
    <g id="Welcome" stroke="none" stroke-width="1" fill="none" fill-rule="evenodd">
        <g id="Desktop-2-Copy" transform="translate(-849.000000, -1378.000000)">
            <g id="BigAppStore" transform="translate(850.000000, 1379.000000)">
                <path d="M170.273943,43.4625053 C170.273943,46.1376656 168.081926,48.304596 165.37068,48.304596 L4.90965786,48.304596 C2.19969042,48.304596 -4.12114787e-13,46.1376656 -4.12114787e-13,43.4625053 L-4.12114787e-13,4.848412 C-4.12114787e-13,2.17451594 2.19969042,1.77635684e-14 4.90965786,1.77635684e-14 L165.369401,1.77635684e-14 C168.081926,1.77635684e-14 170.272664,2.17451594 170.272664,4.848412 L170.273943,43.4625053 L170.273943,43.4625053 Z" id="Shape" stroke="#FFFFFF" fill="#000000"/>
                <g id="Group-8" transform="translate(14.784081, 6.426230)" fill="#FFFFFF">
                    <g id="Group" transform="translate(0.718717, 0.356013)">
                        <path d="M22.133785,17.4264696 C22.0967771,13.3517807 25.5015067,11.3694313 25.6571952,11.2771408 C23.7289544,8.49199046 20.740245,8.11145017 19.6899855,8.08110809 C17.1798269,7.81940762 14.7449603,9.56913441 13.4662725,9.56913441 C12.1620619,9.56913441 10.1929848,8.10639316 8.0707714,8.14937778 C5.33984135,8.19109814 2.785018,9.75750817 1.38382118,12.1899318 C-1.50790194,17.1495981 0.648767114,24.4380193 3.41925737,28.446967 C4.80514056,30.4103526 6.42455656,32.6025681 8.54421768,32.5254487 C10.6179379,32.4407437 11.3925522,31.2156821 13.895054,31.2156821 C16.3745853,31.2156821 17.1019826,32.5254487 19.2637562,32.4761428 C21.4893366,32.4407437 22.8905334,30.5039074 24.2279234,28.5228222 C25.8294735,26.2724511 26.4726458,24.0562148 26.4981686,23.9424319 C26.445847,23.9247324 22.1758975,22.3102807 22.133785,17.4264696 L22.133785,17.4264696 Z" id="Shape"/>
                        <path d="M18.0501513,5.44387538 C19.1654938,4.06204635 19.9286228,2.18210146 19.7167843,0.274343 C18.1024729,0.345141193 16.0836264,1.38056477 14.921067,2.73205172 C13.8925017,3.92297847 12.9736841,5.87498581 13.2110453,7.71068183 C15.0244339,7.84469269 16.8863157,6.8042121 18.0501513,5.44387538 L18.0501513,5.44387538 Z" id="Shape"/>
                    </g>
                    <g id="Group" transform="translate(38.002783, 15.527054)">
                        <path d="M14.8605983,17.0724787 L11.9624945,17.0724787 L10.3749819,12.1305119 L4.85697185,12.1305119 L3.34475124,17.0724787 L0.52321557,17.0724787 L5.99018021,0.247793677 L9.36683484,0.247793677 L14.8605983,17.0724787 L14.8605983,17.0724787 Z M9.89643109,10.0571362 L8.46077861,5.66385548 C8.30891848,5.21504551 8.02434026,4.15812962 7.60449167,2.49437207 L7.55344624,2.49437207 C7.38627249,3.20993952 7.11700789,4.26685541 6.74692859,5.66385548 L5.33679882,10.0571362 L9.89643109,10.0571362 L9.89643109,10.0571362 Z" id="Shape"/>
                        <path d="M28.9197835,10.8574087 C28.9197835,12.9206703 28.3570078,14.5515573 27.2314562,15.7488053 C26.2233092,16.814571 24.9714202,17.3468217 23.4770655,17.3468217 C21.8640302,17.3468217 20.7052991,16.7728506 19.9995961,15.6249085 L19.9485507,15.6249085 L19.9485507,22.0157097 L17.2278298,22.0157097 L17.2278298,8.93447917 C17.2278298,7.63735513 17.1933741,6.30609624 17.127015,4.94070251 L19.5197692,4.94070251 L19.6716293,6.86363201 L19.7226747,6.86363201 C20.6300071,5.41479755 22.0069573,4.69164457 23.8548016,4.69164457 C25.299387,4.69164457 26.5053351,5.25676587 27.4700936,6.38827271 C28.4374043,7.52104381 28.9197835,9.01033438 28.9197835,10.8574087 L28.9197835,10.8574087 Z M26.1480172,10.9560204 C26.1480172,9.77520772 25.8800287,8.80173256 25.3414995,8.03559497 C24.753201,7.23658678 23.9632731,6.83708269 22.9729919,6.83708269 C22.3017446,6.83708269 21.6917519,7.0595913 21.146842,7.49828725 C20.600656,7.94077596 20.243338,8.51853979 20.0761643,9.23410724 C19.9919393,9.56787015 19.9498269,9.8409489 19.9498269,10.055872 L19.9498269,12.0786775 C19.9498269,12.9611264 20.2229199,13.7057717 20.7691059,14.3138776 C21.3152919,14.9219835 22.0248232,15.2254044 22.8976999,15.2254044 C23.9224368,15.2254044 24.7200215,14.8334858 25.2904541,14.0521772 C25.8621628,13.2696043 26.1480172,12.2379735 26.1480172,10.9560204 L26.1480172,10.9560204 Z" id="Shape"/>
                        <path d="M43.0044915,10.8574087 C43.0044915,12.9206703 42.4417157,14.5515573 41.314888,15.7488053 C40.3080171,16.814571 39.0561281,17.3468217 37.5617734,17.3468217 C35.9487381,17.3468217 34.790007,16.7728506 34.0855802,15.6249085 L34.0345348,15.6249085 L34.0345348,22.0157097 L31.3138138,22.0157097 L31.3138138,8.93447917 C31.3138138,7.63735513 31.2793582,6.30609624 31.2129991,4.94070251 L33.6057532,4.94070251 L33.7576134,6.86363201 L33.8086588,6.86363201 C34.714715,5.41479755 36.0916653,4.69164457 37.9407857,4.69164457 C39.384095,4.69164457 40.590043,5.25676587 41.5573538,6.38827271 C42.5208361,7.52104381 43.0044915,9.01033438 43.0044915,10.8574087 L43.0044915,10.8574087 Z M40.2327251,10.9560204 C40.2327251,9.77520772 39.9634605,8.80173256 39.4249313,8.03559497 C38.8366328,7.23658678 38.0492572,6.83708269 37.0576999,6.83708269 C36.3851764,6.83708269 35.7764598,7.0595913 35.2302738,7.49828725 C34.6840878,7.94077596 34.328046,8.51853979 34.1608722,9.23410724 C34.0779234,9.56787015 34.0345348,9.8409489 34.0345348,10.055872 L34.0345348,12.0786775 C34.0345348,12.9611264 34.3076278,13.7057717 34.8512615,14.3138776 C35.3974475,14.9207193 36.1069789,15.2254044 36.9824079,15.2254044 C38.0071447,15.2254044 38.8047294,14.8334858 39.375162,14.0521772 C39.9468707,13.2696043 40.2327251,12.2379735 40.2327251,10.9560204 L40.2327251,10.9560204 Z" id="Shape"/>
                        <path d="M58.752004,12.3542848 C58.752004,13.7854197 58.2504827,14.9497971 57.2436118,15.8486813 C56.1372023,16.8310063 54.5969067,17.3215366 52.6176205,17.3215366 C50.7901944,17.3215366 49.3251908,16.9726026 48.216229,16.2734705 L48.84664,14.0268921 C50.0411028,14.7424595 51.351694,15.1015075 52.7796897,15.1015075 C53.8044265,15.1015075 54.6020112,14.8714134 55.1749961,14.4137537 C55.7454287,13.9560939 56.0300069,13.3416667 56.0300069,12.5755291 C56.0300069,11.8928323 55.795198,11.3175969 55.3243039,10.8510874 C54.8559622,10.3845779 54.0736911,9.95093895 52.9813191,9.55017061 C50.0079233,8.45153435 48.5225015,6.8421397 48.5225015,4.72577942 C48.5225015,3.34268614 49.0431648,2.20865079 50.0857676,1.32620188 C51.1245419,0.44248871 52.5104251,0.00126425346 54.2434171,0.00126425346 C55.7888173,0.00126425346 57.0726096,0.268021733 58.0973465,0.800272438 L57.4171662,2.99754494 C56.4600646,2.48172953 55.3779016,2.22382183 54.166849,2.22382183 C53.2097474,2.22382183 52.4619319,2.45770872 51.925955,2.92295399 C51.4729269,3.33889338 51.2457748,3.84585901 51.2457748,4.4463794 C51.2457748,5.11137672 51.5048303,5.66132698 52.0254936,6.09370166 C52.4785217,6.49320575 53.3016291,6.92558043 54.496092,7.39208996 C55.9572672,7.9749108 57.0304972,8.65634341 57.7208865,9.43765205 C58.4087235,10.2164322 58.752004,11.1911716 58.752004,12.3542848 L58.752004,12.3542848 Z" id="Shape"/>
                        <path d="M67.7474834,6.96350804 L64.7485649,6.96350804 L64.7485649,12.8536649 C64.7485649,14.3518052 65.276885,15.1002433 66.3360775,15.1002433 C66.8222851,15.1002433 67.225544,15.0585229 67.5445779,14.9750822 L67.6198698,17.0219085 C67.0838929,17.2203963 66.37819,17.3202723 65.5040371,17.3202723 C64.429531,17.3202723 63.5898338,16.9953592 62.9836694,16.3467972 C62.3800573,15.6969709 62.0763371,14.6071844 62.0763371,13.0761735 L62.0763371,6.96097953 L60.2897473,6.96097953 L60.2897473,4.938174 L62.0763371,4.938174 L62.0763371,2.71688068 L64.7485649,1.91787249 L64.7485649,4.938174 L67.7474834,4.938174 L67.7474834,6.96350804 L67.7474834,6.96350804 Z" id="Shape"/>
                        <path d="M81.2783485,10.9067146 C81.2783485,12.7714884 80.7398193,14.3024993 79.6653132,15.4997474 C78.5384855,16.7323945 77.0428547,17.3468217 75.1784206,17.3468217 C73.3816218,17.3468217 71.9510739,16.7564153 70.8842246,15.5756026 C69.8173752,14.3947898 69.2839506,12.904235 69.2839506,11.1077309 C69.2839506,9.22778597 69.8326889,7.68792527 70.9339938,6.49067724 C72.0327465,5.29216497 73.515616,4.69290883 75.38005,4.69290883 C77.1768489,4.69290883 78.6227104,5.28331519 79.7138063,6.46539217 C80.7576852,7.61207006 81.2783485,9.09251085 81.2783485,10.9067146 L81.2783485,10.9067146 Z M78.4555367,10.9939481 C78.4555367,9.87508374 78.2143471,8.91551537 77.7255872,8.11524293 C77.1551546,7.14682479 76.339704,6.66387997 75.2830637,6.66387997 C74.1894156,6.66387997 73.3586514,7.14808904 72.7882188,8.11524293 C72.2994589,8.91677962 72.0582692,9.89151904 72.0582692,11.0445182 C72.0582692,12.1633825 72.2994589,13.1229509 72.7882188,13.9219591 C73.3765173,14.8903772 74.1983485,15.373322 75.2588172,15.373322 C76.2975915,15.373322 77.1130421,14.8802632 77.7013406,13.896674 C78.2028619,13.0812305 78.4555367,12.1115481 78.4555367,10.9939481 L78.4555367,10.9939481 Z" id="Shape"/>
                        <path d="M90.1219678,7.31117774 C89.8527032,7.26187185 89.5655727,7.23658678 89.2644047,7.23658678 C88.307303,7.23658678 87.5671444,7.59437051 87.0464811,8.31120222 C86.593453,8.94332895 86.3663009,9.74233713 86.3663009,10.7069625 L86.3663009,17.0724787 L83.6468561,17.0724787 L83.6723788,8.76127645 C83.6723788,7.36301213 83.6379231,6.0899089 83.5702879,4.94196676 L85.9400716,4.94196676 L86.0396102,7.2631361 L86.1149022,7.2631361 C86.4020327,6.46539217 86.8550608,5.82315142 87.4752627,5.34147085 C88.0814271,4.90783192 88.7360846,4.69164457 89.4417875,4.69164457 C89.6931862,4.69164457 89.9203384,4.70934412 90.1219678,4.74095046 L90.1219678,7.31117774 L90.1219678,7.31117774 Z" id="Shape"/>
                        <path d="M102.28992,10.4326195 C102.28992,10.9155643 102.258017,11.322654 102.190382,11.6551526 L94.0282187,11.6551526 C94.060122,12.8536649 94.4544479,13.7702486 95.2124724,14.4023754 C95.9003095,14.9674967 96.789776,15.2506894 97.882148,15.2506894 C99.0906483,15.2506894 100.193229,15.0597872 101.184787,14.6767184 L101.611016,16.5478135 C100.452285,17.0484579 99.0842677,17.2975158 97.505688,17.2975158 C95.6067983,17.2975158 94.116272,16.7437728 93.0315568,15.637551 C91.9493939,14.5313292 91.4070363,13.0458314 91.4070363,11.1823218 C91.4070363,9.35294707 91.9111098,7.82952165 92.920533,6.61457408 C93.9771732,5.31745004 95.4051689,4.66888801 97.2019677,4.66888801 C98.9668632,4.66888801 100.302977,5.31745004 101.210309,6.61457408 C101.928774,7.64494065 102.28992,8.91930813 102.28992,10.4326195 L102.28992,10.4326195 Z M99.6955366,9.73348736 C99.7134025,8.93447917 99.5360196,8.24419679 99.1672165,7.66137594 C98.6963225,6.91167364 97.9727536,6.53745462 96.9990622,6.53745462 C96.1095957,6.53745462 95.3860269,6.90282387 94.8334602,7.63609087 C94.3804321,8.21891172 94.1111675,8.91804388 94.0282187,9.7322231 L99.6955366,9.7322231 L99.6955366,9.73348736 Z" id="Shape"/>
                    </g>
                    <g id="Group" transform="translate(39.278919, 0.356013)">
                        <path d="M7.72062,5.0683921 C7.72062,6.55641842 7.27014416,7.67654698 6.3704686,8.42877779 C5.5371521,9.12285294 4.35289832,9.47052264 2.8189834,9.47052264 C2.05840662,9.47052264 1.4075775,9.43765205 0.862667623,9.37191087 L0.862667623,1.24149689 C1.57347512,1.12771408 2.33915644,1.06955842 3.16609227,1.06955842 C4.62726746,1.06955842 5.72857243,1.38435753 6.47128331,2.01395576 C7.30332368,2.72573045 7.72062,3.74345448 7.72062,5.0683921 L7.72062,5.0683921 Z M6.31049023,5.10505545 C6.31049023,4.14043007 6.05271085,3.4008418 5.5371521,2.88502639 C5.02159334,2.37047523 4.26867337,2.11256752 3.27711606,2.11256752 C2.85599133,2.11256752 2.49739725,2.1403811 2.20005767,2.19853676 L2.20005767,8.37947191 C2.36467915,8.40475697 2.66584714,8.41613526 3.10356163,8.41613526 C4.12702233,8.41613526 4.91695023,8.13420674 5.47334532,7.57034969 C6.02974041,7.00649265 6.31049023,6.18472791 6.31049023,5.10505545 L6.31049023,5.10505545 Z" id="Shape"/>
                        <path d="M15.1974981,6.36804466 C15.1974981,7.28462841 14.9333381,8.03559497 14.4050179,8.62473708 C13.8511751,9.23031448 13.1173972,9.53247106 12.2011319,9.53247106 C11.3180461,9.53247106 10.6148954,9.24295702 10.0904037,8.66140043 C9.56718812,8.08110809 9.30558034,7.34910534 9.30558034,6.46665643 C9.30558034,5.5437514 9.57484494,4.78646358 10.1159264,4.19858573 C10.6570079,3.61070787 11.3844051,3.31613681 12.3006704,3.31613681 C13.1837562,3.31613681 13.8932876,3.60565086 14.4305407,4.18594319 C14.9409949,4.74980023 15.1974981,5.47801022 15.1974981,6.36804466 L15.1974981,6.36804466 Z M13.8103388,6.41102927 C13.8103388,5.86107902 13.690382,5.38951248 13.4517447,4.99632966 C13.1709949,4.52097036 12.7715645,4.28329071 12.2521773,4.28329071 C11.7149242,4.28329071 11.3065609,4.52097036 11.025811,4.99632966 C10.7858976,5.38951248 10.667217,5.86866454 10.667217,6.43505009 C10.667217,6.98500034 10.7871737,7.45656688 11.025811,7.84974971 C11.3154938,8.32510901 11.7187526,8.56278866 12.2394159,8.56278866 C12.7498702,8.56278866 13.1505767,8.32131625 13.4389833,7.83710717 C13.6865536,7.43633883 13.8103388,6.96097953 13.8103388,6.41102927 L13.8103388,6.41102927 Z" id="Shape"/>
                        <path d="M25.2228189,3.43750515 L23.340519,9.39719594 L22.1154289,9.39719594 L21.33571,6.80926911 C21.137909,6.1632356 20.977116,5.52099484 20.8520547,4.8838111 L20.8278081,4.8838111 C20.7116798,5.53869439 20.5508867,6.17967089 20.3441527,6.80926911 L19.5159408,9.39719594 L18.2768132,9.39719594 L16.5068132,3.43750515 L17.8812111,3.43750515 L18.5613914,6.27069714 C18.7260129,6.94075147 18.8612832,7.57919947 18.9697548,8.18351262 L18.9940013,8.18351262 C19.0935399,7.68539676 19.2581614,7.05074152 19.4904181,6.28333968 L20.3441527,3.4387694 L21.4339725,3.4387694 L22.2519754,6.22265551 C22.4497764,6.90155962 22.6105694,7.55517865 22.7343546,8.18477687 L22.7713625,8.18477687 C22.8619681,7.57161395 22.9985147,6.91799491 23.1797259,6.22265551 L23.9096754,3.4387694 L25.2228189,3.4387694 L25.2228189,3.43750515 Z" id="Shape"/>
                        <path d="M32.1560633,9.39719594 L30.8186732,9.39719594 L30.8186732,5.98371161 C30.8186732,4.93185273 30.4154144,4.40592329 29.6063445,4.40592329 C29.2094663,4.40592329 28.8891563,4.55004819 28.6403099,4.83956223 C28.3940157,5.12907627 28.2689544,5.4704247 28.2689544,5.86107902 L28.2689544,9.39593168 L26.9315644,9.39593168 L26.9315644,5.14045455 C26.9315644,4.61705362 26.9149746,4.04940382 26.8830712,3.43497664 L28.0583921,3.43497664 L28.1209227,4.36673144 L28.1579306,4.36673144 C28.3136192,4.0772174 28.5458758,3.83827349 28.8508722,3.64737122 C29.2132947,3.42486261 29.6191058,3.31234405 30.063201,3.31234405 C30.6247006,3.31234405 31.0917662,3.49186805 31.4631217,3.85218028 C31.9250827,4.29340474 32.1560633,4.95208079 32.1560633,5.82694418 L32.1560633,9.39719594 L32.1560633,9.39719594 Z" id="Shape"/>
                        <path d="M35.844095,9.39719594 L34.5079811,9.39719594 L34.5079811,0.702924921 L35.844095,0.702924921 L35.844095,9.39719594 L35.844095,9.39719594 Z" id="Shape"/>
                        <path d="M43.7178512,6.36804466 C43.7178512,7.28462841 43.4536912,8.03559497 42.9253711,8.62473708 C42.3715282,9.23031448 41.6364742,9.53247106 40.721485,9.53247106 C39.8371231,9.53247106 39.1339724,9.24295702 38.6107568,8.66140043 C38.0875412,8.08110809 37.8259335,7.34910534 37.8259335,6.46665643 C37.8259335,5.5437514 38.0951981,4.78646358 38.6362795,4.19858573 C39.177361,3.61070787 39.9047582,3.31613681 40.8197474,3.31613681 C41.7041094,3.31613681 42.4123646,3.60565086 42.9508938,4.18594319 C43.461348,4.74980023 43.7178512,5.47801022 43.7178512,6.36804466 L43.7178512,6.36804466 Z M42.3294158,6.41102927 C42.3294158,5.86107902 42.209459,5.38951248 41.9708217,4.99632966 C41.691348,4.52097036 41.2906414,4.28329071 40.7725304,4.28329071 C40.2340012,4.28329071 39.8256378,4.52097036 39.5461642,4.99632966 C39.3062507,5.38951248 39.1875701,5.86866454 39.1875701,6.43505009 C39.1875701,6.98500034 39.3075268,7.45656688 39.5461642,7.84974971 C39.8358469,8.32510901 40.2391058,8.56278866 40.7597691,8.56278866 C41.2702233,8.56278866 41.6696537,8.32131625 41.9580603,7.83710717 C42.2069068,7.43633883 42.3294158,6.96097953 42.3294158,6.41102927 L42.3294158,6.41102927 Z" id="Shape"/>
                        <path d="M50.1904107,9.39719594 L48.9895671,9.39719594 L48.8900286,8.71070631 L48.8530206,8.71070631 C48.442105,9.25812806 47.8563588,9.53247106 47.095782,9.53247106 C46.5279017,9.53247106 46.0684929,9.35168281 45.7226602,8.99263483 C45.4087308,8.66645744 45.2517662,8.26063208 45.2517662,7.77895151 C45.2517662,7.05074152 45.5580387,6.49573426 46.1744121,6.11140121 C46.7895095,5.72706816 47.6547294,5.53869439 48.7687957,5.54754416 L48.7687957,5.43628986 C48.7687957,4.65118846 48.3527755,4.25926989 47.519459,4.25926989 C46.926056,4.25926989 46.4028404,4.40718755 45.9510884,4.70049435 L45.6792716,3.83068797 C46.2382189,3.48807528 46.9286082,3.31613681 47.7427827,3.31613681 C49.3149817,3.31613681 50.1036335,4.13790156 50.1036335,5.78143105 L50.1036335,7.97617505 C50.1036335,8.57163843 50.1329846,9.04573348 50.1904107,9.39719594 L50.1904107,9.39719594 Z M48.8019752,7.34910534 L48.8019752,6.42999308 C47.3267625,6.40470801 46.5891562,6.80547635 46.5891562,7.63103386 C46.5891562,7.94204021 46.6733811,8.17466285 46.8456594,8.33016602 C47.0179377,8.4856692 47.237433,8.56278866 47.4990408,8.56278866 C47.792552,8.56278866 48.0669211,8.47049815 48.3170437,8.2871814 C48.5684424,8.1026004 48.7228548,7.86871351 48.7802809,7.58172797 C48.7943184,7.51725105 48.8019752,7.43886733 48.8019752,7.34910534 L48.8019752,7.34910534 Z" id="Shape"/>
                        <path d="M57.7897978,9.39719594 L56.6029918,9.39719594 L56.5404611,8.44015607 L56.5034532,8.44015607 C56.1244409,9.16836606 55.4787163,9.53247106 54.571384,9.53247106 C53.846539,9.53247106 53.2429269,9.25054254 52.7643761,8.6866855 C52.2858252,8.12282845 52.0471879,7.3908257 52.0471879,6.4919415 C52.0471879,5.52731611 52.3062434,4.74600747 52.8269067,4.14927984 C53.3309802,3.59300832 53.9486298,3.31487256 54.6836839,3.31487256 C55.4914777,3.31487256 56.0568057,3.58415855 56.3783919,4.12399477 L56.4039146,4.12399477 L56.4039146,0.702924921 L57.7425808,0.702924921 L57.7425808,7.79159405 C57.7425808,8.37188638 57.7578944,8.9066656 57.7897978,9.39719594 L57.7897978,9.39719594 Z M56.4039146,6.88386007 L56.4039146,5.89015685 C56.4039146,5.71821838 56.3911533,5.5791505 56.3669067,5.47295321 C56.2916147,5.15436134 56.1295455,4.88633961 55.8832513,4.67015227 C55.6344049,4.45396493 55.334513,4.34523913 54.9886803,4.34523913 C54.4897113,4.34523913 54.0992138,4.54119841 53.8120833,4.93438124 C53.5275051,5.32756406 53.3833018,5.82947269 53.3833018,6.44263561 C53.3833018,7.03177772 53.5198483,7.50966553 53.7942174,7.87756328 C54.0839002,8.26948185 54.4743977,8.46544114 54.9631576,8.46544114 C55.4021482,8.46544114 55.7530855,8.30235244 56.0197978,7.9749108 C56.2775772,7.67275422 56.4039146,7.30864923 56.4039146,6.88386007 L56.4039146,6.88386007 Z" id="Shape"/>
                        <path d="M69.2278006,6.36804466 C69.2278006,7.28462841 68.9636406,8.03559497 68.4353205,8.62473708 C67.8814776,9.23031448 67.1489758,9.53247106 66.2314344,9.53247106 C65.3496247,9.53247106 64.646474,9.24295702 64.1207062,8.66140043 C63.5974906,8.08110809 63.3358828,7.34910534 63.3358828,6.46665643 C63.3358828,5.5437514 63.6051474,4.78646358 64.1462289,4.19858573 C64.6873104,3.61070787 65.4147076,3.31613681 66.3322491,3.31613681 C67.2140587,3.31613681 67.9248662,3.60565086 68.4608432,4.18594319 C68.9712974,4.74980023 69.2278006,5.47801022 69.2278006,6.36804466 L69.2278006,6.36804466 Z M67.8419174,6.41102927 C67.8419174,5.86107902 67.7219607,5.38951248 67.4833233,4.99632966 C67.2012974,4.52097036 66.8031431,4.28329071 66.2824798,4.28329071 C65.7465029,4.28329071 65.3381395,4.52097036 65.0561136,4.99632966 C64.8162001,5.38951248 64.6975195,5.86866454 64.6975195,6.43505009 C64.6975195,6.98500034 64.8174762,7.45656688 65.0561136,7.84974971 C65.3457963,8.32510901 65.7490551,8.56278866 66.2697184,8.56278866 C66.7801727,8.56278866 67.1821554,8.32131625 67.470562,7.83710717 C67.7168561,7.43633883 67.8419174,6.96097953 67.8419174,6.41102927 L67.8419174,6.41102927 Z" id="Shape"/>
                        <path d="M76.4188244,9.39719594 L75.0827105,9.39719594 L75.0827105,5.98371161 C75.0827105,4.93185273 74.6794516,4.40592329 73.8691056,4.40592329 C73.4722274,4.40592329 73.1519174,4.55004819 72.9043471,4.83956223 C72.6567768,5.12907627 72.5329917,5.4704247 72.5329917,5.86107902 L72.5329917,9.39593168 L71.1943255,9.39593168 L71.1943255,5.14045455 C71.1943255,4.61705362 71.1790119,4.04940382 71.1471085,3.43497664 L72.3211532,3.43497664 L72.3836838,4.36673144 L72.4206917,4.36673144 C72.5776564,4.0772174 72.8099131,3.83827349 73.1136333,3.64737122 C73.477332,3.42486261 73.8818669,3.31234405 74.3272382,3.31234405 C74.8874617,3.31234405 75.3545273,3.49186805 75.7258828,3.85218028 C76.18912,4.29340474 76.4188244,4.95208079 76.4188244,5.82694418 L76.4188244,9.39719594 L76.4188244,9.39719594 Z" id="Shape"/>
                        <path d="M85.4194083,4.42994411 L83.9467479,4.42994411 L83.9467479,7.32508452 C83.9467479,8.06088003 84.2083557,8.42877779 84.7264667,8.42877779 C84.9663802,8.42877779 85.1654573,8.40854974 85.322422,8.36682937 L85.3568777,9.37191087 C85.0927176,9.47052264 84.7456088,9.51982852 84.3181034,9.51982852 C83.7897832,9.51982852 83.3788676,9.36053259 83.081528,9.04194072 C82.7829123,8.72334885 82.6348806,8.18730538 82.6348806,7.43507457 L82.6348806,4.42994411 L81.7556232,4.42994411 L81.7556232,3.43750515 L82.6348806,3.43750515 L82.6348806,2.34519016 L83.9454718,1.95327159 L83.9454718,3.43624089 L85.4181322,3.43624089 L85.4181322,4.42994411 L85.4194083,4.42994411 Z" id="Shape"/>
                        <path d="M92.4994083,9.39719594 L91.1607421,9.39719594 L91.1607421,6.00899668 C91.1607421,4.94070251 90.7574833,4.40592329 89.9496895,4.40592329 C89.3294876,4.40592329 88.9058106,4.71566539 88.6735539,5.33514958 C88.6339937,5.46536769 88.6110233,5.62466363 88.6110233,5.81177314 L88.6110233,9.39593168 L87.2749094,9.39593168 L87.2749094,0.702924921 L88.6110233,0.702924921 L88.6110233,4.29466899 L88.636546,4.29466899 C89.0576707,3.64104995 89.6612828,3.31487256 90.4435539,3.31487256 C90.9973968,3.31487256 91.4555294,3.49439655 91.819228,3.85470879 C92.2722562,4.30351876 92.4994083,4.97104459 92.4994083,5.8534935 L92.4994083,9.39719594 L92.4994083,9.39719594 Z" id="Shape"/>
                        <path d="M99.802732,6.13542202 C99.802732,6.37310167 99.7848661,6.57285372 99.7529627,6.73594241 L95.7420687,6.73594241 C95.7599346,7.32508452 95.9513549,7.7738945 96.3227104,8.08490085 C96.6621624,8.36303661 97.0998769,8.50210449 97.6358538,8.50210449 C98.2292568,8.50210449 98.7703383,8.40854974 99.2578221,8.22017597 L99.4671083,9.14055249 C98.8966757,9.38581766 98.2254284,9.50845024 97.4482619,9.50845024 C96.516683,9.50845024 95.782905,9.23663575 95.2520326,8.69300676 C94.718608,8.14937778 94.4544479,7.41990353 94.4544479,6.50458403 C94.4544479,5.60569982 94.7007421,4.85726178 95.1971588,4.26053415 C95.7152698,3.6233504 96.4158682,3.30475853 97.3002302,3.30475853 C98.1654501,3.30475853 98.8226599,3.6233504 99.266755,4.26053415 C99.6253491,4.76623553 99.802732,5.39204099 99.802732,6.13542202 L99.802732,6.13542202 Z M98.5265964,5.79280933 C98.5368055,5.39962651 98.4487522,5.06080658 98.2675409,4.7750853 C98.0352842,4.40718755 97.6817947,4.22260654 97.2032439,4.22260654 C96.7668055,4.22260654 96.4107637,4.40213053 96.1389468,4.76244277 C95.9168993,5.0494283 95.7854573,5.39204099 95.7420687,5.79280933 L98.5265964,5.79280933 L98.5265964,5.79280933 Z" id="Shape"/>
                    </g>
                </g>
            </g>
        </g>
    </g>
</svg>